<?xml version="1.0" encoding="UTF-8"?>
<svg width="512" height="512" viewBox="0 0 512 512" fill="none" xmlns="http://www.w3.org/2000/svg">
    <!-- Background Circle -->
    <circle cx="256" cy="256" r="248" fill="#1A1A1A" stroke="#4F46E5" stroke-width="16"/>
    
    <!-- Water Wave Pattern -->
    <path d="M128 256C128 256 192 224 256 224C320 224 384 256 384 256C384 256 320 288 256 288C192 288 128 256 128 256Z" stroke="#60A5FA" stroke-width="12" stroke-linecap="round"/>
    <path d="M128 208C128 208 192 176 256 176C320 176 384 208 384 208C384 208 320 240 256 240C192 240 128 208 128 208Z" stroke="#3B82F6" stroke-width="12" stroke-linecap="round" opacity="0.7"/>
    <path d="M128 304C128 304 192 272 256 272C320 272 384 304 384 304C384 304 320 336 256 336C192 336 128 304 128 304Z" stroke="#93C5FD" stroke-width="12" stroke-linecap="round" opacity="0.5"/>
    
    <!-- Globe Meridians -->
    <path d="M256 64C256 64 384 160 384 256C384 352 256 448 256 448" stroke="#4F46E5" stroke-width="12" stroke-linecap="round" opacity="0.5"/>
    <path d="M256 64C256 64 128 160 128 256C128 352 256 448 256 448" stroke="#4F46E5" stroke-width="12" stroke-linecap="round" opacity="0.5"/>
    
    <!-- Analytics Arrow -->
    <path d="M208 192L256 144L304 192" stroke="#4F46E5" stroke-width="12" stroke-linecap="round" stroke-linejoin="round"/>
</svg>